<svg width="179" height="172" viewBox="0 0 179 172" fill="none" xmlns="http://www.w3.org/2000/svg">
<path d="M157.676 77.4479H50.1916C47.051 77.4479 44.5051 79.4026 44.5051 81.8137V164.335C44.5051 166.746 47.051 168.701 50.1916 168.701H157.676C160.817 168.701 163.363 166.746 163.363 164.335V81.8137C163.363 79.4026 160.817 77.4479 157.676 77.4479Z" fill="#7E71B1" stroke="#7E71B1" stroke-width="0.755906" stroke-miterlimit="22.9256"/>
<path fill-rule="evenodd" clip-rule="evenodd" d="M174.809 44.5637C155.343 20.411 115.813 72.0947 113.591 74.0094C118.016 73.4316 194.34 68.7981 174.809 44.5637Z" fill="#7E71B1" stroke="#7E71B1" stroke-width="0.755906" stroke-miterlimit="22.9256"/>
<path fill-rule="evenodd" clip-rule="evenodd" d="M164.686 49.8743C150.216 31.919 137.335 60.6992 124.022 68.2576C142.86 63.1858 179.205 67.8905 164.686 49.8743Z" fill="#FEFEFE" stroke="#7E71B1" stroke-width="0.755906" stroke-miterlimit="22.9256"/>
<path fill-rule="evenodd" clip-rule="evenodd" d="M96.6139 1.08547C148.253 -1.82769 104.902 70.6722 103.923 73.976C101.113 69.9144 44.8011 4.00845 96.6139 1.08547Z" fill="#7E71B1" stroke="#7E71B1" stroke-width="0.755906" stroke-miterlimit="22.9256"/>
<path fill-rule="evenodd" clip-rule="evenodd" d="M97.9167 12.1668C120.483 16.2048 104.623 30.7261 103.055 59.3512C100.877 31.4649 60.4145 5.45518 97.9167 12.1668Z" fill="#FEFEFE" stroke="#7E71B1" stroke-width="0.755906" stroke-miterlimit="22.9256"/>
<path fill-rule="evenodd" clip-rule="evenodd" d="M96.6736 74.4131C41.8063 59.1183 67.0584 39.1005 2 43.003C38.0466 26.342 50.5441 32.9352 96.6736 74.4131Z" fill="#7E71B1" stroke="#7E71B1" stroke-width="0.755906" stroke-miterlimit="22.9256"/>
<path d="M162.954 77.4479H44.9141C41.4655 77.4479 38.6697 78.2085 38.6697 79.1466V111.259C38.6697 112.198 41.4655 112.958 44.9141 112.958H162.954C166.402 112.958 169.198 112.198 169.198 111.259V79.1466C169.198 78.2085 166.402 77.4479 162.954 77.4479Z" fill="#7E71B1" stroke="#7E71B1" stroke-width="0.755906" stroke-miterlimit="22.9256"/>
<path d="M108.084 76.1111H99.7854V171.32H108.084V76.1111Z" fill="#FEFEFE" stroke="#FEFEFE" stroke-width="0.755906" stroke-miterlimit="22.9256"/>
</svg>
