<svg width="230" height="261" viewBox="0 0 230 261" fill="none" xmlns="http://www.w3.org/2000/svg">
<path d="M203.224 117.909H64.3045C60.2455 117.909 56.955 120.896 56.955 124.581V250.708C56.955 254.393 60.2455 257.381 64.3045 257.381H203.224C207.283 257.381 210.574 254.393 210.574 250.708V124.581C210.574 120.896 207.283 117.909 203.224 117.909Z" fill="#7E71B1" stroke="#7E71B1" stroke-width="0.755906" stroke-miterlimit="22.9256"/>
<path fill-rule="evenodd" clip-rule="evenodd" d="M225.367 67.6478C200.208 30.7325 149.118 109.727 146.246 112.653C151.965 111.77 250.61 104.688 225.367 67.6478Z" fill="#7E71B1" stroke="#7E71B1" stroke-width="0.755906" stroke-miterlimit="22.9256"/>
<path fill-rule="evenodd" clip-rule="evenodd" d="M212.284 75.7648C193.582 48.3215 176.934 92.3097 159.727 103.862C184.075 96.1101 231.049 103.301 212.284 75.7648Z" fill="#FEFEFE" stroke="#7E71B1" stroke-width="0.755906" stroke-miterlimit="22.9256"/>
<path fill-rule="evenodd" clip-rule="evenodd" d="M124.303 1.19501C191.045 -3.25751 135.016 107.552 133.75 112.602C130.118 106.394 57.3376 5.66254 124.303 1.19501Z" fill="#7E71B1" stroke="#7E71B1" stroke-width="0.755906" stroke-miterlimit="22.9256"/>
<path fill-rule="evenodd" clip-rule="evenodd" d="M125.987 18.132C155.153 24.3037 134.655 46.4983 132.628 90.2494C129.814 47.6274 77.5173 7.87378 125.987 18.132Z" fill="#FEFEFE" stroke="#7E71B1" stroke-width="0.755906" stroke-miterlimit="22.9256"/>
<path fill-rule="evenodd" clip-rule="evenodd" d="M124.381 113.27C53.4668 89.8934 86.1043 59.2978 2.01888 65.2625C48.6076 39.7975 64.7602 49.8747 124.381 113.27Z" fill="#7E71B1" stroke="#7E71B1" stroke-width="0.755906" stroke-miterlimit="22.9256"/>
<path d="M210.045 117.909H57.4837C53.0264 117.909 49.413 119.071 49.413 120.505V169.587C49.413 171.021 53.0264 172.183 57.4837 172.183H210.045C214.502 172.183 218.116 171.021 218.116 169.587V120.505C218.116 119.071 214.502 117.909 210.045 117.909Z" fill="#7E71B1" stroke="#7E71B1" stroke-width="0.755906" stroke-miterlimit="22.9256"/>
<path d="M139.128 115.865H128.403V261.384H139.128V115.865Z" fill="#FEFEFE" stroke="#FEFEFE" stroke-width="0.755906" stroke-miterlimit="22.9256"/>
</svg>
