<svg width="726" height="269" viewBox="0 0 726 269" fill="none" xmlns="http://www.w3.org/2000/svg">
<path d="M204.323 117.844H64.6317C60.5501 117.844 57.2413 120.832 57.2413 124.517V250.644C57.2413 254.329 60.5501 257.317 64.6317 257.317H204.323C208.405 257.317 211.713 254.329 211.713 250.644V124.517C211.713 120.832 208.405 117.844 204.323 117.844Z" fill="#7E71B1" stroke="#7E71B1" stroke-width="0.755906" stroke-miterlimit="22.9256"/>
<path fill-rule="evenodd" clip-rule="evenodd" d="M226.589 67.5834C201.29 30.6681 149.917 109.662 147.029 112.589C152.78 111.706 251.972 104.624 226.589 67.5834Z" fill="#7E71B1" stroke="#7E71B1" stroke-width="0.755906" stroke-miterlimit="22.9256"/>
<path fill-rule="evenodd" clip-rule="evenodd" d="M213.434 75.7004C194.627 48.2572 177.887 92.2453 160.585 103.798C185.068 96.0458 232.302 103.237 213.434 75.7004Z" fill="#FEFEFE" stroke="#7E71B1" stroke-width="0.755906" stroke-miterlimit="22.9256"/>
<path fill-rule="evenodd" clip-rule="evenodd" d="M124.964 1.13064C192.076 -3.32188 135.736 107.488 134.463 112.538C130.811 106.33 57.626 5.59816 124.964 1.13064Z" fill="#7E71B1" stroke="#7E71B1" stroke-width="0.755906" stroke-miterlimit="22.9256"/>
<path fill-rule="evenodd" clip-rule="evenodd" d="M126.657 18.0676C155.985 24.2393 135.373 46.4339 133.335 90.185C130.505 47.563 77.9178 7.8094 126.657 18.0676Z" fill="#FEFEFE" stroke="#7E71B1" stroke-width="0.755906" stroke-miterlimit="22.9256"/>
<path fill-rule="evenodd" clip-rule="evenodd" d="M125.042 113.206C53.7338 89.829 86.5525 59.2334 2 65.1981C48.8476 39.7332 65.0899 49.8103 125.042 113.206Z" fill="#7E71B1" stroke="#7E71B1" stroke-width="0.755906" stroke-miterlimit="22.9256"/>
<path d="M211.182 117.844H57.7729C53.2909 117.844 49.6575 119.007 49.6575 120.441V169.522C49.6575 170.956 53.2909 172.119 57.7729 172.119H211.182C215.664 172.119 219.297 170.956 219.297 169.522V120.441C219.297 119.007 215.664 117.844 211.182 117.844Z" fill="#7E71B1" stroke="#7E71B1" stroke-width="0.755906" stroke-miterlimit="22.9256"/>
<path d="M139.871 115.801H129.086V261.32H139.871V115.801Z" fill="#FEFEFE" stroke="#FEFEFE" stroke-width="0.755906" stroke-miterlimit="22.9256"/>
<path d="M312.524 187L319.527 144.818H327.168L324.202 162.675H343.749L346.714 144.818H354.376L347.374 187H339.712L342.678 169.081H323.131L320.165 187H312.524ZM364.376 187.638C362.371 187.638 360.627 187.281 359.145 186.567C357.662 185.84 356.57 184.769 355.87 183.354C355.183 181.94 355.011 180.196 355.355 178.123C355.657 176.338 356.234 174.862 357.085 173.695C357.95 172.527 359.007 171.594 360.257 170.893C361.52 170.179 362.893 169.644 364.376 169.287C365.873 168.93 367.397 168.669 368.949 168.504C370.843 168.312 372.374 168.134 373.542 167.969C374.722 167.804 375.608 167.557 376.199 167.227C376.789 166.884 377.146 166.362 377.27 165.662V165.538C377.517 163.987 377.27 162.785 376.528 161.934C375.787 161.083 374.551 160.657 372.821 160.657C371.008 160.657 369.484 161.055 368.248 161.852C367.012 162.648 366.113 163.589 365.55 164.673L358.794 163.685C359.646 161.762 360.813 160.156 362.296 158.865C363.779 157.561 365.488 156.586 367.424 155.94C369.374 155.281 371.454 154.952 373.665 154.952C375.176 154.952 376.652 155.13 378.093 155.487C379.549 155.844 380.833 156.435 381.945 157.259C383.071 158.069 383.895 159.174 384.417 160.575C384.952 161.975 385.041 163.726 384.684 165.827L381.162 187H373.995L374.736 182.654H374.489C373.899 183.533 373.13 184.357 372.182 185.126C371.235 185.881 370.109 186.492 368.804 186.959C367.5 187.412 366.024 187.638 364.376 187.638ZM367.198 182.16C368.694 182.16 370.04 181.865 371.235 181.274C372.429 180.67 373.411 179.874 374.18 178.885C374.949 177.896 375.43 176.818 375.622 175.651L376.24 171.923C375.965 172.116 375.539 172.294 374.963 172.459C374.386 172.624 373.741 172.768 373.027 172.891C372.326 173.015 371.633 173.125 370.946 173.221C370.26 173.317 369.669 173.399 369.175 173.468C368.035 173.619 366.992 173.866 366.044 174.21C365.111 174.553 364.335 175.033 363.717 175.651C363.113 176.255 362.735 177.038 362.584 177.999C362.364 179.359 362.687 180.395 363.552 181.109C364.417 181.81 365.632 182.16 367.198 182.16ZM402.377 187.618C399.219 187.618 396.623 186.924 394.591 185.538C392.559 184.151 391.138 182.235 390.328 179.791C389.531 177.333 389.401 174.505 389.936 171.305C390.458 168.092 391.536 165.257 393.17 162.799C394.818 160.327 396.891 158.405 399.39 157.032C401.889 155.645 404.684 154.952 407.773 154.952C410.341 154.952 412.531 155.425 414.343 156.373C416.17 157.307 417.529 158.632 418.422 160.348C419.328 162.051 419.678 164.042 419.472 166.321H412.325C412.297 164.797 411.824 163.527 410.904 162.511C409.984 161.481 408.638 160.966 406.867 160.966C405.329 160.966 403.915 161.378 402.624 162.202C401.333 163.012 400.242 164.179 399.349 165.703C398.457 167.227 397.839 169.054 397.495 171.182C397.138 173.338 397.145 175.191 397.516 176.743C397.9 178.281 398.594 179.469 399.596 180.306C400.612 181.13 401.896 181.542 403.448 181.542C404.546 181.542 405.569 181.336 406.517 180.924C407.464 180.498 408.295 179.887 409.009 179.091C409.737 178.295 410.306 177.326 410.718 176.187H417.845C417.282 178.425 416.279 180.409 414.838 182.139C413.41 183.856 411.638 185.201 409.524 186.176C407.409 187.137 405.027 187.618 402.377 187.618ZM424.122 161.481L425.11 155.364H452.792L451.803 161.481H441.546L437.324 187H430.136L434.338 161.481H424.122ZM451.5 198.864L458.791 155.364H466.123L465.279 160.595H465.711C466.206 159.826 466.872 159.009 467.709 158.144C468.56 157.265 469.638 156.517 470.943 155.899C472.247 155.268 473.833 154.952 475.701 154.952C478.131 154.952 480.225 155.576 481.983 156.826C483.74 158.062 484.997 159.895 485.752 162.325C486.521 164.742 486.617 167.708 486.04 171.223C485.463 174.697 484.399 177.649 482.848 180.08C481.296 182.51 479.435 184.364 477.266 185.641C475.096 186.918 472.769 187.556 470.284 187.556C468.471 187.556 467.009 187.254 465.897 186.65C464.798 186.046 463.967 185.318 463.404 184.467C462.842 183.602 462.423 182.785 462.148 182.016H461.819L459.017 198.864H451.5ZM463.466 171.182C463.137 173.228 463.13 175.02 463.446 176.558C463.775 178.095 464.427 179.297 465.402 180.162C466.377 181.013 467.654 181.439 469.233 181.439C470.881 181.439 472.323 181 473.559 180.121C474.808 179.228 475.845 178.013 476.669 176.475C477.506 174.924 478.097 173.159 478.44 171.182C478.756 169.218 478.756 167.474 478.44 165.95C478.124 164.426 477.486 163.232 476.525 162.366C475.563 161.501 474.259 161.069 472.611 161.069C471.005 161.069 469.57 161.488 468.306 162.325C467.057 163.163 466.02 164.337 465.196 165.847C464.373 167.358 463.796 169.136 463.466 171.182ZM503.645 187.618C500.528 187.618 497.933 186.931 495.86 185.558C493.8 184.185 492.351 182.256 491.514 179.771C490.676 177.285 490.525 174.402 491.061 171.12C491.596 167.879 492.667 165.044 494.274 162.614C495.894 160.183 497.933 158.302 500.391 156.97C502.862 155.625 505.629 154.952 508.691 154.952C511.808 154.952 514.396 155.645 516.456 157.032C518.516 158.405 519.964 160.334 520.802 162.82C521.653 165.305 521.811 168.202 521.276 171.511C520.754 174.738 519.676 177.56 518.042 179.977C516.422 182.393 514.383 184.274 511.925 185.62C509.467 186.952 506.707 187.618 503.645 187.618ZM504.263 181.645C505.993 181.645 507.51 181.178 508.815 180.244C510.133 179.297 511.211 178.027 512.048 176.434C512.9 174.827 513.49 173.042 513.82 171.079C514.122 169.184 514.129 167.468 513.84 165.93C513.552 164.378 512.934 163.149 511.987 162.243C511.053 161.323 509.755 160.863 508.094 160.863C506.364 160.863 504.833 161.344 503.501 162.305C502.183 163.252 501.105 164.529 500.267 166.136C499.43 167.728 498.853 169.507 498.537 171.47C498.221 173.365 498.208 175.081 498.496 176.619C498.784 178.157 499.402 179.379 500.35 180.286C501.297 181.192 502.602 181.645 504.263 181.645ZM538.973 187.618C535.801 187.618 533.179 186.959 531.105 185.641C529.032 184.309 527.577 182.428 526.739 179.997C525.915 177.553 525.778 174.676 526.327 171.367C526.863 168.113 527.954 165.257 529.602 162.799C531.25 160.327 533.309 158.405 535.781 157.032C538.266 155.645 541.012 154.952 544.02 154.952C545.969 154.952 547.761 155.268 549.395 155.899C551.029 156.517 552.409 157.478 553.535 158.783C554.661 160.087 555.437 161.749 555.863 163.767C556.288 165.772 556.268 168.161 555.801 170.935L555.451 173.221H529.499L530.302 168.195H549.086C549.333 166.767 549.251 165.497 548.839 164.385C548.427 163.259 547.741 162.373 546.779 161.728C545.818 161.083 544.617 160.76 543.175 160.76C541.706 160.76 540.333 161.138 539.056 161.893C537.792 162.634 536.728 163.595 535.863 164.776C534.998 165.957 534.449 167.2 534.216 168.504L533.371 173.324C533.069 175.301 533.138 176.915 533.577 178.164C534.016 179.414 534.785 180.334 535.884 180.924C536.982 181.514 538.369 181.81 540.044 181.81C541.143 181.81 542.159 181.659 543.093 181.357C544.026 181.054 544.857 180.601 545.585 179.997C546.326 179.379 546.944 178.624 547.439 177.732L554.256 178.514C553.501 180.354 552.395 181.961 550.94 183.334C549.484 184.693 547.741 185.75 545.708 186.506C543.69 187.247 541.445 187.618 538.973 187.618ZM584.368 168.092L583.38 174.21H566.532L567.541 168.092H584.368ZM571.99 155.364L566.717 187H559.508L564.781 155.364H571.99ZM591.412 155.364L586.14 187H578.972L584.245 155.364H591.412ZM602.56 176.908L618.811 155.364H626.452L621.18 187H613.991L617.555 165.435L601.366 187H593.662L598.935 155.364H606.144L602.56 176.908ZM642.739 187.618C639.567 187.618 636.944 186.959 634.871 185.641C632.798 184.309 631.342 182.428 630.505 179.997C629.681 177.553 629.543 174.676 630.093 171.367C630.628 168.113 631.72 165.257 633.368 162.799C635.015 160.327 637.075 158.405 639.547 157.032C642.032 155.645 644.778 154.952 647.785 154.952C649.735 154.952 651.527 155.268 653.161 155.899C654.795 156.517 656.175 157.478 657.301 158.783C658.427 160.087 659.203 161.749 659.628 163.767C660.054 165.772 660.033 168.161 659.566 170.935L659.216 173.221H633.265L634.068 168.195H652.852C653.099 166.767 653.017 165.497 652.605 164.385C652.193 163.259 651.506 162.373 650.545 161.728C649.584 161.083 648.382 160.76 646.941 160.76C645.471 160.76 644.098 161.138 642.821 161.893C641.558 162.634 640.494 163.595 639.629 164.776C638.764 165.957 638.215 167.2 637.981 168.504L637.137 173.324C636.835 175.301 636.903 176.915 637.343 178.164C637.782 179.414 638.551 180.334 639.65 180.924C640.748 181.514 642.135 181.81 643.81 181.81C644.908 181.81 645.925 181.659 646.858 181.357C647.792 181.054 648.623 180.601 649.35 179.997C650.092 179.379 650.71 178.624 651.204 177.732L658.022 178.514C657.266 180.354 656.161 181.961 654.706 183.334C653.25 184.693 651.506 185.75 649.474 186.506C647.456 187.247 645.211 187.618 642.739 187.618ZM312.215 257L317.488 225.364H330.793C334.514 225.364 337.336 226.119 339.259 227.629C341.195 229.126 341.943 231.206 341.504 233.87C341.201 235.655 340.343 237.104 338.929 238.216C337.515 239.328 335.73 240.076 333.574 240.461C335.194 240.598 336.574 241.017 337.714 241.717C338.867 242.418 339.705 243.344 340.227 244.498C340.748 245.638 340.886 246.942 340.638 248.411C340.35 250.155 339.643 251.672 338.517 252.963C337.391 254.24 335.901 255.236 334.048 255.95C332.194 256.65 330.031 257 327.56 257H312.215ZM320.186 251.13H328.528C329.915 251.13 331.054 250.8 331.947 250.141C332.839 249.482 333.368 248.597 333.533 247.484C333.766 246.18 333.546 245.157 332.874 244.415C332.214 243.66 331.205 243.283 329.846 243.283H321.504L320.186 251.13ZM322.287 238.463H328.734C329.736 238.463 330.629 238.319 331.411 238.031C332.194 237.728 332.826 237.31 333.306 236.774C333.8 236.225 334.103 235.573 334.212 234.817C334.405 233.733 334.103 232.881 333.306 232.263C332.51 231.646 331.336 231.337 329.784 231.337H323.482L322.287 238.463ZM359.737 257L365.009 225.364H391.744L386.471 257H379.262L383.526 231.481H371.147L366.884 257H359.737ZM407.979 257.618C404.862 257.618 402.267 256.931 400.194 255.558C398.134 254.185 396.685 252.256 395.848 249.771C395.01 247.285 394.859 244.402 395.395 241.12C395.93 237.879 397.001 235.044 398.608 232.614C400.228 230.183 402.267 228.302 404.725 226.97C407.196 225.625 409.963 224.952 413.025 224.952C416.142 224.952 418.73 225.645 420.79 227.032C422.85 228.405 424.298 230.334 425.136 232.82C425.987 235.305 426.145 238.202 425.61 241.511C425.088 244.738 424.01 247.56 422.376 249.977C420.756 252.393 418.717 254.274 416.259 255.62C413.801 256.952 411.041 257.618 407.979 257.618ZM408.597 251.645C410.327 251.645 411.844 251.178 413.149 250.244C414.467 249.297 415.545 248.027 416.382 246.434C417.234 244.827 417.824 243.042 418.154 241.079C418.456 239.184 418.463 237.468 418.174 235.93C417.886 234.378 417.268 233.149 416.321 232.243C415.387 231.323 414.089 230.863 412.428 230.863C410.698 230.863 409.167 231.344 407.835 232.305C406.517 233.252 405.439 234.529 404.601 236.136C403.764 237.728 403.187 239.507 402.871 241.47C402.555 243.365 402.542 245.081 402.83 246.619C403.118 248.157 403.736 249.379 404.684 250.286C405.631 251.192 406.935 251.645 408.597 251.645ZM425.1 266.186L427.675 250.862H430.187C430.943 250.34 431.615 249.633 432.206 248.741C432.81 247.835 433.359 246.77 433.854 245.548C434.348 244.312 434.815 242.933 435.254 241.408C435.707 239.871 436.153 238.216 436.593 236.445L439.332 225.364H462.194L458.013 250.862H462.915L460.341 266.186H453.132L454.656 257H433.956L432.432 266.186H425.1ZM437.849 250.862H450.887L454.1 231.378H444.831L443.472 236.445C442.662 239.795 441.831 242.665 440.98 245.054C440.129 247.443 439.085 249.379 437.849 250.862ZM476.468 257.638C474.463 257.638 472.719 257.281 471.236 256.567C469.753 255.84 468.662 254.769 467.961 253.354C467.275 251.94 467.103 250.196 467.447 248.123C467.749 246.338 468.325 244.862 469.177 243.695C470.042 242.527 471.099 241.594 472.349 240.893C473.612 240.179 474.985 239.644 476.468 239.287C477.965 238.93 479.489 238.669 481.04 238.504C482.935 238.312 484.466 238.134 485.633 237.969C486.814 237.804 487.7 237.557 488.29 237.227C488.881 236.884 489.238 236.362 489.361 235.662V235.538C489.608 233.987 489.361 232.785 488.62 231.934C487.878 231.083 486.643 230.657 484.912 230.657C483.1 230.657 481.576 231.055 480.34 231.852C479.104 232.648 478.205 233.589 477.642 234.673L470.886 233.685C471.738 231.762 472.905 230.156 474.388 228.865C475.871 227.561 477.58 226.586 479.516 225.94C481.466 225.281 483.546 224.952 485.757 224.952C487.267 224.952 488.743 225.13 490.185 225.487C491.641 225.844 492.925 226.435 494.037 227.259C495.163 228.069 495.987 229.174 496.508 230.575C497.044 231.975 497.133 233.726 496.776 235.827L493.254 257H486.086L486.828 252.654H486.581C485.99 253.533 485.221 254.357 484.274 255.126C483.327 255.881 482.201 256.492 480.896 256.959C479.592 257.412 478.116 257.638 476.468 257.638ZM479.29 252.16C480.786 252.16 482.132 251.865 483.327 251.274C484.521 250.67 485.503 249.874 486.272 248.885C487.041 247.896 487.521 246.818 487.714 245.651L488.331 241.923C488.057 242.116 487.631 242.294 487.055 242.459C486.478 242.624 485.832 242.768 485.118 242.891C484.418 243.015 483.725 243.125 483.038 243.221C482.352 243.317 481.761 243.399 481.267 243.468C480.127 243.619 479.084 243.866 478.136 244.21C477.202 244.553 476.427 245.033 475.809 245.651C475.205 246.255 474.827 247.038 474.676 247.999C474.456 249.359 474.779 250.395 475.644 251.109C476.509 251.81 477.724 252.16 479.29 252.16ZM498.795 268.864L506.086 225.364H513.418L512.574 230.595H513.006C513.501 229.826 514.166 229.009 515.004 228.144C515.855 227.265 516.933 226.517 518.238 225.899C519.542 225.268 521.128 224.952 522.996 224.952C525.426 224.952 527.52 225.576 529.278 226.826C531.035 228.062 532.291 229.895 533.047 232.325C533.816 234.742 533.912 237.708 533.335 241.223C532.758 244.697 531.694 247.649 530.143 250.08C528.591 252.51 526.73 254.364 524.561 255.641C522.391 256.918 520.064 257.556 517.579 257.556C515.766 257.556 514.304 257.254 513.192 256.65C512.093 256.046 511.262 255.318 510.699 254.467C510.136 253.602 509.718 252.785 509.443 252.016H509.113L506.312 268.864H498.795ZM510.761 241.182C510.432 243.228 510.425 245.02 510.741 246.558C511.07 248.095 511.722 249.297 512.697 250.162C513.672 251.013 514.949 251.439 516.528 251.439C518.176 251.439 519.618 251 520.854 250.121C522.103 249.228 523.14 248.013 523.964 246.475C524.801 244.924 525.392 243.159 525.735 241.182C526.051 239.218 526.051 237.474 525.735 235.95C525.419 234.426 524.781 233.232 523.819 232.366C522.858 231.501 521.554 231.069 519.906 231.069C518.3 231.069 516.865 231.488 515.601 232.325C514.352 233.163 513.315 234.337 512.491 235.847C511.667 237.358 511.091 239.136 510.761 241.182ZM550.94 257.618C547.823 257.618 545.228 256.931 543.154 255.558C541.095 254.185 539.646 252.256 538.809 249.771C537.971 247.285 537.82 244.402 538.355 241.12C538.891 237.879 539.962 235.044 541.569 232.614C543.189 230.183 545.228 228.302 547.686 226.97C550.157 225.625 552.924 224.952 555.986 224.952C559.103 224.952 561.691 225.645 563.751 227.032C565.811 228.405 567.259 230.334 568.097 232.82C568.948 235.305 569.106 238.202 568.571 241.511C568.049 244.738 566.971 247.56 565.337 249.977C563.717 252.393 561.678 254.274 559.22 255.62C556.762 256.952 554.002 257.618 550.94 257.618ZM551.558 251.645C553.288 251.645 554.805 251.178 556.11 250.244C557.428 249.297 558.506 248.027 559.343 246.434C560.195 244.827 560.785 243.042 561.115 241.079C561.417 239.184 561.424 237.468 561.135 235.93C560.847 234.378 560.229 233.149 559.282 232.243C558.348 231.323 557.05 230.863 555.389 230.863C553.659 230.863 552.128 231.344 550.796 232.305C549.478 233.252 548.4 234.529 547.562 236.136C546.725 237.728 546.148 239.507 545.832 241.47C545.516 243.365 545.502 245.081 545.791 246.619C546.079 248.157 546.697 249.379 547.645 250.286C548.592 251.192 549.896 251.645 551.558 251.645ZM572.366 257L577.638 225.364H585.115L582.973 238.134H585.692L597.349 225.364H606.309L592.015 240.893L601.18 257H592.138L585.465 245.075H581.819L579.842 257H572.366Z" fill="#7E71B1"/>
</svg>
